<svg width="145" height="147" viewBox="0 0 145 147" fill="none" xmlns="http://www.w3.org/2000/svg">
<circle cx="74" cy="73" r="58" fill="white"/>
<circle cx="74" cy="73" r="52" fill="#787878"/>
<path d="M78.0582 3.27273V12H76.4645L72.6676 6.5071H72.6037V12H70.7585V3.27273H72.3778L76.1449 8.76136H76.2216V3.27273H78.0582Z" fill="white"/>
<path d="M137.759 77V68.2727H143.639V69.794H139.604V71.8736H143.337V73.3949H139.604V75.4787H143.656V77H137.759Z" fill="white"/>
<path d="M75.4929 137.783C75.4588 137.439 75.3125 137.172 75.054 136.982C74.7955 136.791 74.4446 136.696 74.0014 136.696C73.7003 136.696 73.446 136.739 73.2386 136.824C73.0313 136.906 72.8722 137.021 72.7614 137.169C72.6534 137.317 72.5994 137.484 72.5994 137.672C72.5938 137.828 72.6264 137.964 72.6974 138.081C72.7713 138.197 72.8722 138.298 73 138.384C73.1278 138.466 73.2756 138.538 73.4432 138.601C73.6108 138.661 73.7898 138.712 73.9801 138.754L74.7642 138.942C75.1449 139.027 75.4943 139.141 75.8125 139.283C76.1307 139.425 76.4063 139.599 76.6392 139.807C76.8722 140.014 77.0526 140.259 77.1804 140.54C77.3111 140.821 77.3778 141.143 77.3807 141.507C77.3778 142.041 77.2415 142.504 76.9716 142.896C76.7045 143.286 76.3182 143.588 75.8125 143.804C75.3097 144.017 74.7031 144.124 73.9929 144.124C73.2884 144.124 72.6747 144.016 72.152 143.8C71.6321 143.584 71.2259 143.264 70.9332 142.841C70.6435 142.415 70.4915 141.888 70.4773 141.26H72.2628C72.2827 141.553 72.3665 141.797 72.5142 141.993C72.6648 142.186 72.8651 142.332 73.1151 142.432C73.3679 142.528 73.6534 142.577 73.9716 142.577C74.2841 142.577 74.5554 142.531 74.7855 142.44C75.0185 142.349 75.1989 142.223 75.3267 142.061C75.4545 141.899 75.5185 141.713 75.5185 141.503C75.5185 141.307 75.4602 141.142 75.3438 141.009C75.2301 140.875 75.0625 140.761 74.8409 140.668C74.6222 140.574 74.3537 140.489 74.0355 140.412L73.0852 140.173C72.3494 139.994 71.7685 139.714 71.3423 139.334C70.9162 138.953 70.7045 138.44 70.7074 137.795C70.7045 137.267 70.8452 136.805 71.1293 136.411C71.4162 136.016 71.8097 135.707 72.3097 135.486C72.8097 135.264 73.3778 135.153 74.0142 135.153C74.6619 135.153 75.2273 135.264 75.7102 135.486C76.196 135.707 76.5739 136.016 76.8438 136.411C77.1136 136.805 77.2528 137.263 77.2614 137.783H75.4929Z" fill="white"/>
<path d="M2.72301 78L0.225852 69.2727H2.24148L3.68608 75.3366H3.75852L5.35227 69.2727H7.07812L8.66761 75.3494H8.74432L10.1889 69.2727H12.2045L9.70739 78H7.90909L6.24716 72.294H6.17898L4.52131 78H2.72301Z" fill="white"/>
</svg>
