<svg width="8" height="18" viewBox="0 0 8 18" fill="none" xmlns="http://www.w3.org/2000/svg">
<path d="M4.0285 13.1645C3.77779 12.946 3.57261 12.4951 3.57261 12.1624V0.604696C3.57261 0.272151 3.3006 0.000135422 2.96805 0.000135422H2.19261C1.86006 0.000135422 1.58805 0.272145 1.58805 0.604696L1.58791 12.1621C1.58791 12.4949 1.37456 12.9358 1.11395 13.1423C1.11395 13.1423 -6.48499e-05 14.0245 -6.48499e-05 14.8586C-6.48499e-05 16.1463 1.13311 17.1903 2.53091 17.1903C3.92846 17.1903 5.0615 16.1462 5.0615 14.8586C5.0615 14.0646 4.02851 13.1643 4.02851 13.1643L4.0285 13.1645Z" fill="white"/>
<path d="M3.32156 3.35842C3.32156 3.69096 3.04955 3.96298 2.71699 3.96298H2.45221C2.11966 3.96298 1.84763 3.69097 1.84763 3.35842L1.8475 0.867221C1.8475 0.534677 2.11952 0.262661 2.45207 0.262661H2.71686C3.04941 0.262661 3.32143 0.53467 3.32143 0.867221L3.32156 3.35842Z" fill="white"/>
<path d="M6.59205 10.6013C6.59205 11.1723 6.1296 11.6349 5.55826 11.6349C4.98693 11.6349 4.52462 11.1725 4.52462 10.6013L5.54434 8.7406L6.59205 10.6013Z" fill="white"/>
<path d="M7.70462 12.2926C7.70127 12.6241 7.43047 12.8899 7.09872 12.8867C6.76779 12.8837 6.50167 12.6128 6.50503 12.2812L7.10705 11.2071L7.70462 12.2926Z" fill="white"/>
<path d="M7.4869 9.64095C7.48516 9.83849 7.3235 9.99708 7.1261 9.99505C6.92881 9.99318 6.76982 9.83166 6.77198 9.63426L7.13121 8.9938L7.4869 9.64095Z" fill="white"/>
<path d="M4.00692 15.3375C3.98723 15.3372 4.00437 15.3371 4.04496 15.3371C4.085 15.3371 3.99781 15.5814 3.85076 15.8796L3.80281 15.9767C3.65603 16.275 3.31732 16.5193 3.05041 16.5193H2.56464H2.07929C1.81237 16.5193 1.47367 16.275 1.32662 15.9767L1.27867 15.8796C1.13161 15.5814 1.04483 15.3371 1.08554 15.3371C1.12653 15.3371 1.432 15.3371 1.76458 15.3374L3.43841 15.3376C3.77069 15.3376 4.02676 15.3375 4.00694 15.3375H4.00692Z" fill="white"/>
<path d="M2.34474 15.0755C1.95943 15.0533 1.73911 14.929 1.54197 14.5552C1.34482 14.181 1.36853 14.0372 1.56741 13.5997L1.5796 13.6011C2.0438 13.6842 2.17463 13.7483 2.36951 14.1197C2.56733 14.4932 2.54469 14.7457 2.3446 15.0753" fill="white"/>
<path d="M2.79629 14.01C2.62459 14.0002 2.52641 13.9447 2.43868 13.7783C2.35095 13.6119 2.3614 13.5476 2.45019 13.3529L2.45528 13.3533C2.66208 13.3904 2.72047 13.4192 2.80686 13.5844C2.89472 13.7506 2.88468 13.8632 2.79561 14.01" fill="white"/>
<path d="M3.01776 15.0755C2.84245 14.8603 2.80147 14.6826 2.90445 14.3962C3.00798 14.1098 3.09583 14.0529 3.42476 13.946L3.42945 13.9535C3.61106 14.2403 3.63985 14.341 3.53807 14.6246C3.43521 14.911 3.28977 15.021 3.01776 15.0747" fill="white"/>
</svg>
